<svg width="30" height="29" viewBox="0 0 30 29" fill="none" xmlns="http://www.w3.org/2000/svg">
<g id="Union">
<path d="M15.1554 21.3444C16.5887 21.3444 17.998 20.0351 17.998 20.0351C17.998 20.0351 18.046 20.6597 17.986 20.9041C17.7537 21.8371 17.1974 22.3814 16.1764 22.6657C15.792 22.7737 15.3837 22.8297 14.967 22.8297C14.5504 22.8297 14.1424 22.7737 13.758 22.6657C12.737 22.3814 12.1804 21.8371 11.9484 20.9041C11.8884 20.6637 11.9364 20.0351 11.9364 20.0351C11.9364 20.0351 13.3457 21.3444 14.779 21.3444H15.1554Z" fill="white"/>
<path d="M12.7527 16.7521C12.7527 17.5791 12.0824 18.2495 11.2554 18.2495C10.4284 18.2495 9.75804 17.5791 9.75804 16.7521C9.75804 15.9251 10.4284 15.2548 11.2554 15.2548C12.0824 15.2548 12.7527 15.9251 12.7527 16.7521Z" fill="white"/>
<path d="M20.176 16.7521C20.176 17.5791 19.5057 18.2495 18.6787 18.2495C17.8517 18.2495 17.1814 17.5791 17.1814 16.7521C17.1814 15.9251 17.8517 15.2548 18.6787 15.2548C19.5057 15.2548 20.176 15.9251 20.176 16.7521Z" fill="white"/>
<path fill-rule="evenodd" clip-rule="evenodd" d="M15.0001 0.196777C13.0303 0.196777 11.4334 1.79363 11.4334 3.76344C11.4334 5.39981 12.5354 6.7788 14.0378 7.19877V8.76296H6.03342C4.90062 8.76296 3.98242 9.68116 3.98242 10.814V14.6595C2.12181 15.0837 0.733398 16.7487 0.733398 18.7376C0.733398 20.7266 2.12188 22.3913 3.98242 22.8154V26.2093C3.98242 27.3421 4.90062 28.2603 6.03342 28.2603H23.9664C25.0992 28.2603 26.0174 27.3421 26.0174 26.2093V22.8158C27.8781 22.3918 29.2667 20.727 29.2667 18.7379C29.2667 16.749 27.8782 15.0838 26.0174 14.6598V10.814C26.0174 9.68152 25.0999 8.76296 23.9668 8.76296H15.9044V7.21446C17.4363 6.81414 18.5668 5.4208 18.5668 3.76344C18.5668 1.79363 16.9699 0.196777 15.0001 0.196777ZM13.3001 3.76344C13.3001 2.82456 14.0612 2.06344 15.0001 2.06344C15.939 2.06344 16.7001 2.82456 16.7001 3.76344C16.7001 4.70233 15.939 5.46344 15.0001 5.46344C14.0612 5.46344 13.3001 4.70233 13.3001 3.76344ZM6.03342 10.6296C5.93155 10.6296 5.84909 10.7121 5.84909 10.814V26.2093C5.84909 26.3112 5.93156 26.3936 6.03342 26.3936H23.9664C24.0683 26.3936 24.1508 26.3112 24.1508 26.2093V10.814C24.1508 10.7117 24.0683 10.6296 23.9668 10.6296H6.03342ZM2.60007 18.7376C2.60007 17.7907 3.16838 16.9765 3.9824 16.6175V20.8575C3.16834 20.4985 2.60007 19.6844 2.60007 18.7376ZM26.0177 20.8578V16.6178C26.8317 16.9768 27.4 17.7911 27.4 18.7379C27.4 19.6847 26.8318 20.4989 26.0177 20.8578Z" fill="white"/>
</g>
</svg>
