<svg width="100" height="50" viewBox="0 0 100 50" fill="none" xmlns="http://www.w3.org/2000/svg">
<path d="M63.9 17.9H76.5V21.4H68.1V23.6H76V26.8H68.1V29.1H76.5V32.6H63.9V17.9Z" fill="#00A884"/>
<path d="M13.7 34.7L10.5 40L7.3 34.7H2.5L8.4 43.9V49.3H12.5V43.8L18.5 34.7H13.7Z" fill="#E73088"/>
<path d="M38.6 34.7L32.5 49.4H36.7L37.7 46.8H43.3L44.3 49.4H48.6L42.5 34.7C42.4 34.7 38.6 34.7 38.6 34.7ZM40.5 39.5L42.1 43.6H38.9L40.5 39.5Z" fill="#E73088"/>
<path d="M23.4 1.1H19.2V15.8H23.4V1.1Z" fill="#233A84"/>
<path d="M14 1.2L10.5 10.5L7.1 1.2H2.5L8.6 15.8H12.4L18.6 1.2H14Z" fill="#233A84"/>
<path d="M31.2 15.8C34.9 15.8 37.3 14.1 37.3 11.2C37.3 8.5 35.1 7.5 31.6 6.8C29.5 6.3 29 6 29 5.4C29 4.9 29.5 4.5 30.5 4.5C31.9 4.5 33.4 5 34.8 5.9L36.9 3.1C35.3 1.8 33.2 1.2 30.6 1.2C27 1.2 24.7 3.1 24.7 5.7C24.7 8.6 27.2 9.5 30.4 10.2C32.5 10.7 33 11 33 11.6C33 12.2 32.4 12.6 31.2 12.6C29.4 12.6 27.8 12 26.3 10.9L24 13.5C26 15 28.5 15.8 31.2 15.8Z" fill="#233A84"/>
<path d="M42.9 1.1V4.7H47.5V15.8H51.7V4.7H56.2V1.1H42.9Z" fill="#233A84"/>
<path d="M42.3 1.1H38.1V15.8H42.3V1.1Z" fill="#233A84"/>
<path d="M33.2 25.3C33.2 21.2 36.4 17.9 40.5 17.9C44.7 17.9 47.8 21.1 47.8 25.2C47.8 29.3 44.6 32.5 40.5 32.5C36.3 32.6 33.2 29.3 33.2 25.3ZM44 25.3C44 23.2 42.6 21.4 40.5 21.4C38.4 21.4 37 23.1 37 25.2C37 27.2 38.4 29 40.5 29C42.6 29.1 44 27.3 44 25.3Z" fill="#00A884"/>
<path d="M19.2 17.9H23.4V23.9L28.4 17.9H33.2L27.7 24.2L33.9 32.6H29.1L24.9 27.1L23.4 28.8V32.6H19.2V17.9Z" fill="#E73088"/>
<path d="M33.2 17.9H28.4L23.4 23.8V17.9H19.2V28.5C20.5 29 21.9 29.3 23.3 29.3V28.8L24.8 27.2L26.1 29C27.4 28.6 28.6 28 29.7 27.2L27.6 24.3L33.2 17.9Z" fill="#00A884"/>
<path d="M27.7 24.3L28.3 23.6C29.2 22.4 29.6 20.9 29.6 19.2C29.6 18.8 29.6 18.4 29.5 18H28.4L23.4 23.9V17.9H19.2V25.6C20.2 26.1 21.3 26.4 22.5 26.4C24.5 26.4 26.4 25.6 27.7 24.3Z" fill="#FABA20"/>
<path d="M23.4 17.9H19.2V20.6C19.8 21.9 21 22.7 22.5 22.7C22.8 22.7 23.1 22.7 23.4 22.6V17.9Z" fill="#233A84"/>
<path d="M83.3 17.9H87.1L93.2 32.6H89L88 30H82.5L81.5 32.6H77.3L83.3 17.9ZM86.8 26.8L85.2 22.7L83.6 26.8H86.8Z" fill="#E73088"/>
<path d="M87.2 17.9H83.4L79.6 27.2C81.4 28.9 83.9 30 86.5 30H86.6C88.5 30 90.2 29.5 91.7 28.6L87.2 17.9ZM86.8 26.8H83.6L85.2 22.7L86.8 26.8Z" fill="#00A884"/>
<path d="M83.9 25.9L85.2 22.7L86.6 26.4C87.9 26.4 89.1 25.9 90.2 25.3L87.2 18H83.4L81 23.6C81.7 24.6 82.8 25.5 83.9 25.9Z" fill="#FABA20"/>
<path d="M87.2 17.9H83.4L83.2 18.3C83.1 18.6 83 19 83 19.4C83 21.4 84.6 23 86.4 23C87.3 23 88.2 22.6 88.8 22L87.2 17.9Z" fill="#233A84"/>
<path d="M19.2 34.7H31.8V38.2H23.4V40.4H31.2V43.6H23.4V45.9H31.8V49.4H19.2V34.7Z" fill="#E73088"/>
<path d="M49.2 34.7H56C58.2 34.7 59.7 35.3 60.7 36.3C61.6 37.2 62 38.3 62 39.7C62 42 60.8 43.5 59 44.2L62.4 49.3H57.8L55 44.9H53.4V49.4H49.2V34.7ZM55.9 41.7C57.2 41.7 58 41 58 39.9C58 38.7 57.1 38.1 55.9 38.1H53.5V41.7H55.9Z" fill="#E73088"/>
<path d="M90.5 45.4L89 47.8V48.5H90.6V49.4H91.4V48.5H91.9V47.9H91.4V45.4H90.5ZM90.7 46.2C90.7 46.5 90.7 47.3 90.7 47.9H89.6L90.7 46.2Z" fill="#100C08"/>
<path d="M79.1 47.3H76.8V47.5H79.1V47.3Z" fill="#100C08"/>
<path d="M66.8 46.6C66.8 45.8 66.2 45.3 65.4 45.3C64.5 45.3 64 45.8 64 46.7H64.8C64.8 46.2 65 46 65.4 46C65.8 46 66 46.3 66 46.5C66 46.7 65.9 46.9 65.7 47.1C65.1 47.6 64.4 47.9 64.1 48.6C64 48.8 64 49 64 49.2H66.9V48.5H65C65 48.3 65.7 48 65.9 47.8C66.7 47.4 66.8 46.9 66.8 46.6Z" fill="#100C08"/>
<path d="M69.9 47.4C69.9 46 69.4 45.4 68.5 45.4C67.5 45.4 67.1 46 67.1 47.4C67.1 48.8 67.6 49.4 68.5 49.4C69.5 49.4 69.9 48.7 69.9 47.4ZM68.5 48.8C68.1 48.8 67.9 48.5 67.9 47.4C67.9 46.3 68.1 46 68.5 46C68.9 46 69.1 46.3 69.1 47.4C69.1 48.5 68.9 48.8 68.5 48.8Z" fill="#100C08"/>
<path d="M73 46.6C73 45.8 72.4 45.3 71.6 45.3C70.7 45.3 70.2 45.8 70.2 46.7H71C71 46.2 71.2 46 71.6 46C72 46 72.2 46.3 72.2 46.5C72.2 46.7 72.1 46.9 71.9 47.1C71.3 47.6 70.6 47.9 70.3 48.6C70.3 48.8 70.2 49 70.2 49.2H73V48.5H71.2C71.2 48.3 71.9 48 72.1 47.8C73 47.4 73 46.9 73 46.6Z" fill="#100C08"/>
<path d="M76.1 46.5C76.1 45.8 75.5 45.4 74.8 45.4C74 45.4 73.4 45.8 73.4 46.7H74.1C74.1 46.3 74.3 46.1 74.6 46.1C74.9 46.1 75.1 46.3 75.1 46.6C75.1 47 74.9 47.1 74.4 47.1H74.2V47.6H74.3C74.8 47.6 75.1 47.8 75.1 48.1C75.1 48.5 74.8 48.7 74.5 48.7C74.1 48.7 73.9 48.5 73.9 48H73.1C73.1 48.9 73.7 49.3 74.5 49.3C75.3 49.3 75.9 48.8 75.9 48C75.9 47.5 75.7 47.2 75.3 47.1C75.9 47.1 76.1 46.8 76.1 46.5Z" fill="#100C08"/>
<path d="M82.4 46.6C82.4 45.8 81.8 45.3 81 45.3C80.1 45.3 79.6 45.8 79.6 46.7H80.4C80.4 46.2 80.6 46 81 46C81.4 46 81.6 46.3 81.6 46.5C81.6 46.7 81.5 46.9 81.3 47.1C80.7 47.6 80 47.9 79.7 48.6C79.6 48.8 79.6 49 79.6 49.2H82.5V48.5H80.7C80.7 48.3 81.4 48 81.6 47.8C82.4 47.4 82.4 46.9 82.4 46.6Z" fill="#100C08"/>
<path d="M85.6 47.4C85.6 46 85.1 45.4 84.2 45.4C83.2 45.4 82.8 46 82.8 47.4C82.8 48.8 83.3 49.4 84.2 49.4C85.1 49.4 85.6 48.7 85.6 47.4ZM84.2 48.8C83.8 48.8 83.6 48.5 83.6 47.4C83.6 46.3 83.8 46 84.2 46C84.6 46 84.8 46.3 84.8 47.4C84.8 48.5 84.6 48.8 84.2 48.8Z" fill="#100C08"/>
<path d="M88.7 46.6C88.7 45.8 88.1 45.3 87.3 45.3C86.4 45.3 85.9 45.8 85.9 46.7H86.7C86.7 46.2 86.9 46 87.3 46C87.7 46 87.9 46.3 87.9 46.5C87.9 46.7 87.8 46.9 87.6 47.1C87 47.7 86.3 48 86 48.8C85.9 49 85.9 49.2 85.9 49.4H88.8V48.7H87C87 48.5 87.7 48.2 87.9 48C88.7 47.4 88.7 46.9 88.7 46.6Z" fill="#100C08"/>
<path d="M62 22.9C62 21.4 61.6 20.3 60.7 19.5C59.7 18.5 58.2 17.9 56 17.9H49.2V32.6H50.2C50.1 32.2 50 31.9 50 31.4C50 29.6 51.6 28.1 53.4 28.1H55L57.9 32.6H62.5L59.1 27.5C60.9 26.7 62 25.2 62 22.9ZM58.1 23.2C58.1 24.3 57.3 25 56 25H53.5V21.4H56C57.2 21.4 58.1 22 58.1 23.2Z" fill="#233A84"/>
<path d="M61.1 25.9C60.3 24.8 59.3 23.8 58.1 23.1C58.1 24.2 57.3 24.9 56 24.9H53.5V21.7C52.1 21.7 50.5 22 49.3 22.6V32.5H50.3C50.2 32.1 50.1 31.8 50.1 31.3C50.1 29.5 51.7 28 53.5 28V32.5V28.1H55.1L58 32.6H62.6L59.2 27.5C59.9 27.1 60.6 26.6 61.1 25.9Z" fill="#FABA20"/>
<path d="M59.7 31.8C59.7 28.2 57 25.3 53.5 25.3C52 25.3 50.4 25.8 49.3 26.7V32.6H50.3C50.2 32.2 50.1 31.9 50.1 31.4C50.1 29.6 51.7 28.1 53.5 28.1H55.1L58 32.6H59.7C59.6 32.3 59.7 32.1 59.7 31.8Z" fill="#00A884"/>
<path d="M50.1 31.4C50.1 31.8 50.2 32.2 50.3 32.6H53.5V28.1C51.7 28.2 50.1 29.6 50.1 31.4Z" fill="#E73088"/>
<path d="M89.9 18L91.4 7.3C90.5 7.1 89.7 6.8 88.8 6.6C88.8 6.8 88.8 7 88.7 7.2C88.3 8.9 86.5 9.9 84.8 9.4C84.7 9.4 84.6 9.3 84.5 9.3L85.1 7.7L81.8 15.8C77.4 14.8 74.3 14.4 74.1 14.9C73.9 15.5 79 17.4 85.4 19.2C91.8 20.9 97.1 21.8 97.3 21.2C97.5 20.7 94.4 19.4 89.9 18Z" fill="#100C08"/>
<path d="M84.5 9.3C84.6 9.3 84.7 9.4 84.8 9.4C86.5 9.9 88.2 8.9 88.7 7.2C88.7 7 88.8 6.8 88.8 6.6C87.9 6.3 86.9 6 86 5.8L84.5 9.3Z" fill="#E73088"/>
<path d="M85.1 8.7C86.3 9 87.6 8.2 88 7C88 6.8 88 6.5 88 6.4C87.3 6.2 86.6 6 86 5.8L84.9 8.6C84.9 8.6 85 8.7 85.1 8.7Z" fill="#00A884"/>
<path d="M85.3 7.9C86.1 8.1 86.9 7.6 87.2 6.8C87.3 6.6 87.3 6.4 87.2 6.1C86.8 6 86.4 5.9 86 5.8L85.2 7.8C85.2 7.8 85.2 7.8 85.3 7.9Z" fill="#233A84"/>
</svg>
