<svg width="36" height="36" viewBox="0 0 36 36" fill="none" xmlns="http://www.w3.org/2000/svg">
<path d="M0 18C0 27.9411 8.05888 36 18 36C27.9411 36 36 27.9411 36 18C36 8.05888 27.9411 0 18 0C8.05888 0 0 8.05888 0 18Z" fill="#252525"/>
<path d="M18 8.98785C20.9157 8.98785 21.3133 8.98785 22.506 8.98785C23.5663 8.98785 24.0964 9.25291 24.494 9.38544C25.0241 9.6505 25.4217 9.78303 25.8193 10.1806C26.2169 10.5782 26.4819 10.9758 26.6145 11.5059C26.747 11.9035 26.8795 12.4336 27.012 13.4939C27.012 14.6866 27.012 14.9517 27.012 17.9999C27.012 21.0481 27.012 21.3132 27.012 22.5059C27.012 23.5662 26.747 24.0963 26.6145 24.4939C26.3494 25.024 26.2169 25.4216 25.8193 25.8192C25.4217 26.2168 25.0241 26.4818 24.494 26.6144C24.0964 26.7469 23.5663 26.8794 22.506 27.0119C21.3133 27.0119 21.0482 27.0119 18 27.0119C14.9518 27.0119 14.6867 27.0119 13.494 27.0119C12.4337 27.0119 11.9036 26.7469 11.506 26.6144C10.9759 26.3493 10.5783 26.2168 10.1807 25.8192C9.78313 25.4216 9.51807 25.024 9.38554 24.4939C9.25301 24.0963 9.12048 23.5662 8.98795 22.5059C8.98795 21.3132 8.98795 21.0481 8.98795 17.9999C8.98795 14.9517 8.98795 14.6866 8.98795 13.4939C8.98795 12.4336 9.25301 11.9035 9.38554 11.5059C9.6506 10.9758 9.78313 10.5782 10.1807 10.1806C10.5783 9.78303 10.9759 9.51797 11.506 9.38544C11.9036 9.25291 12.4337 9.12038 13.494 8.98785C14.6867 8.98785 15.0843 8.98785 18 8.98785ZM18 6.9999C14.9518 6.9999 14.6867 6.9999 13.494 6.9999C12.3012 6.9999 11.506 7.26496 10.8434 7.53002C10.1807 7.79508 9.51807 8.19267 8.85542 8.85532C8.19277 9.51797 7.92771 10.0481 7.53012 10.8433C7.26506 11.5059 7.13253 12.3011 7 13.4939C7 14.6866 7 15.0842 7 17.9999C7 21.0481 7 21.3132 7 22.5059C7 23.6987 7.26506 24.4939 7.53012 25.1565C7.79518 25.8192 8.19277 26.4818 8.85542 27.1445C9.51807 27.8071 10.0482 28.0722 10.8434 28.4698C11.506 28.7348 12.3012 28.8674 13.494 28.9999C14.6867 28.9999 15.0843 28.9999 18 28.9999C20.9157 28.9999 21.3133 28.9999 22.506 28.9999C23.6988 28.9999 24.494 28.7348 25.1566 28.4698C25.8193 28.2047 26.4819 27.8071 27.1446 27.1445C27.8072 26.4818 28.0723 25.9517 28.4699 25.1565C28.7349 24.4939 28.8675 23.6987 29 22.5059C29 21.3132 29 20.9156 29 17.9999C29 15.0842 29 14.6866 29 13.4939C29 12.3011 28.7349 11.5059 28.4699 10.8433C28.2048 10.1806 27.8072 9.51797 27.1446 8.85532C26.4819 8.19267 25.9518 7.92761 25.1566 7.53002C24.494 7.26496 23.6988 7.13243 22.506 6.9999C21.3133 6.9999 21.0482 6.9999 18 6.9999Z" fill="white"/>
<path d="M18 12.3011C14.8193 12.3011 12.3012 14.8192 12.3012 17.9999C12.3012 21.1806 14.8193 23.6987 18 23.6987C21.1807 23.6987 23.6988 21.1806 23.6988 17.9999C23.6988 14.8192 21.1807 12.3011 18 12.3011ZM18 21.7107C16.012 21.7107 14.2892 20.1204 14.2892 17.9999C14.2892 16.0119 15.8795 14.2891 18 14.2891C19.988 14.2891 21.7108 15.8794 21.7108 17.9999C21.7108 19.9879 19.988 21.7107 18 21.7107Z" fill="white"/>
<path d="M23.8313 13.4939C24.5633 13.4939 25.1566 12.9005 25.1566 12.1686C25.1566 11.4366 24.5633 10.8433 23.8313 10.8433C23.0994 10.8433 22.506 11.4366 22.506 12.1686C22.506 12.9005 23.0994 13.4939 23.8313 13.4939Z" fill="white"/>
</svg>
