<svg xmlns="http://www.w3.org/2000/svg" width="36" height="36" viewBox="0 0 36 36" fill="none">
  <path d="M0 18C0 27.9411 8.05888 36 18 36C27.9411 36 36 27.9411 36 18C36 8.05888 27.9411 0 18 0C8.05888 0 0 8.05888 0 18Z" fill="#252525"/>
  <path d="M19.9027 16.8921L27.3482 8H25.5838L19.119 15.7209L13.9555 8H8L15.8082 19.6753L8 29H9.76443L16.5915 20.8465L22.0445 29H28L19.9023 16.8921H19.9027ZM17.4861 19.7782L16.695 18.6156L10.4002 9.36466H13.1102L18.1902 16.8304L18.9813 17.993L25.5847 27.6974H22.8746L17.4861 19.7786V19.7782Z" fill="white"/>
</svg>