<svg width="36" height="36" viewBox="0 0 36 36" fill="none" xmlns="http://www.w3.org/2000/svg">
<path d="M0 18C0 27.9411 8.05888 36 18 36C27.9411 36 36 27.9411 36 18C36 8.05888 27.9411 0 18 0C8.05888 0 0 8.05888 0 18Z" fill="#252525"/>
<path d="M27.8929 13.2768C27.625 12.3393 26.9554 11.6697 26.0179 11.4018C24.4107 11 17.5803 11 17.5803 11C17.5803 11 10.8839 11 9.14287 11.4018C8.20537 11.6697 7.53571 12.3393 7.26785 13.2768C7 15.0179 7 18.5 7 18.5C7 18.5 7 21.9822 7.40179 23.7233C7.66965 24.6608 8.33928 25.3304 9.27678 25.5983C10.8839 26 17.7143 26 17.7143 26C17.7143 26 24.4107 26 26.1518 25.5983C27.0893 25.3304 27.7589 24.6608 28.0268 23.7233C28.4286 21.9822 28.4286 18.5 28.4286 18.5C28.4286 18.5 28.4286 15.0179 27.8929 13.2768ZM15.5714 21.7143V15.2858L21.1964 18.5L15.5714 21.7143Z" fill="white"/>
</svg>
